<svg xmlns="http://www.w3.org/2000/svg" xmlns:xlink="http://www.w3.org/1999/xlink" width="40" zoomAndPan="magnify" viewBox="0 0 30 30.000001" height="40" preserveAspectRatio="xMidYMid meet" version="1.0"><defs><g/><clipPath id="id1"><path d="M 0.484375 0 L 29.515625 0 L 29.515625 29.03125 L 0.484375 29.03125 Z M 0.484375 0 " clip-rule="nonzero"/></clipPath></defs><g clip-path="url(#id1)"><path fill="#41729f" d="M 15 0 C 6.984375 0 0.484375 6.5 0.484375 14.515625 C 0.484375 22.53125 6.984375 29.03125 15 29.03125 C 23.015625 29.03125 29.515625 22.53125 29.515625 14.515625 C 29.515625 6.5 23.015625 0 15 0 " fill-opacity="1" fill-rule="nonzero"/></g><g fill="#f4d8ff" fill-opacity="1"><g transform="translate(2.595057, 20.424347)"><g><path d="M 2.984375 -5.34375 L 7.921875 -3.609375 L 7.921875 -1.1875 L 0.46875 -4.34375 L 0.46875 -6.390625 L 7.921875 -9.546875 L 7.921875 -7.125 Z M 2.984375 -5.34375 "/></g></g><g transform="translate(11.613162, 20.424347)"><g><path d="M 1.75 1.078125 L -0.109375 1.078125 L 4.53125 -12.59375 L 6.390625 -12.59375 Z M 1.75 1.078125 "/></g></g><g transform="translate(18.23394, 20.424347)"><g><path d="M 6.0625 -5.375 L 1.03125 -7.125 L 1.03125 -9.53125 L 8.578125 -6.375 L 8.578125 -4.34375 L 1.03125 -1.171875 L 1.03125 -3.59375 Z M 6.0625 -5.375 "/></g></g></g></svg>